<svg width="11" height="11" viewBox="0 0 11 11" fill="none" xmlns="http://www.w3.org/2000/svg">
<path d="M10.1386 0.147802C10.3356 -0.0492608 10.6551 -0.0492611 10.8522 0.147802C11.0493 0.344864 11.0493 0.664366 10.8522 0.861428L0.861437 10.8522C0.664374 11.0493 0.344873 11.0493 0.14781 10.8522C-0.049252 10.6551 -0.049252 10.3356 0.14781 10.1386L10.1386 0.147802Z" fill="#D9D9D9"/>
<path d="M10.8522 10.1386C11.0492 10.3356 11.0492 10.6551 10.8522 10.8522C10.6551 11.0493 10.3356 11.0493 10.1386 10.8522L0.147797 0.861424C-0.0492655 0.664361 -0.0492657 0.344859 0.147797 0.147797C0.344859 -0.0492657 0.66436 -0.0492656 0.861423 0.147797L10.8522 10.1386Z" fill="#D9D9D9"/>
</svg>
