<svg width="10" height="10" viewBox="0 0 10 10" fill="none" xmlns="http://www.w3.org/2000/svg">
<path d="M5 0C4.0111 0 3.0444 0.293245 2.22215 0.842652C1.39991 1.39206 0.759043 2.17295 0.380605 3.08658C0.00216643 4.00021 -0.0968503 5.00555 0.0960759 5.97545C0.289002 6.94536 0.765206 7.83627 1.46447 8.53553C2.16373 9.23479 3.05465 9.711 4.02455 9.90392C4.99446 10.0969 5.99979 9.99783 6.91342 9.6194C7.82705 9.24096 8.60795 8.6001 9.15735 7.77785C9.70676 6.9556 10 5.98891 10 5C9.99857 3.67436 9.47133 2.40342 8.53396 1.46605C7.59658 0.528678 6.32565 0.00143378 5 0V0ZM5 8.33333C4.91759 8.33333 4.83704 8.3089 4.76852 8.26311C4.7 8.21733 4.64659 8.15225 4.61505 8.07612C4.58352 7.99998 4.57527 7.9162 4.59134 7.83538C4.60742 7.75455 4.6471 7.68031 4.70538 7.62204C4.76365 7.56377 4.83789 7.52408 4.91872 7.508C4.99954 7.49193 5.08332 7.50018 5.15946 7.53172C5.23559 7.56325 5.30067 7.61666 5.34645 7.68518C5.39223 7.7537 5.41667 7.83426 5.41667 7.91667C5.41667 8.02717 5.37277 8.13315 5.29463 8.21129C5.21649 8.28943 5.11051 8.33333 5 8.33333ZM5.80417 5.21083C5.68121 5.28771 5.58066 5.39562 5.51264 5.52369C5.44461 5.65176 5.41152 5.79549 5.41667 5.94042V6.25C5.41667 6.36051 5.37277 6.46649 5.29463 6.54463C5.21649 6.62277 5.11051 6.66667 5 6.66667C4.8895 6.66667 4.78352 6.62277 4.70538 6.54463C4.62724 6.46649 4.58334 6.36051 4.58334 6.25V5.94042C4.57718 5.64642 4.64982 5.35614 4.79372 5.0997C4.93762 4.84326 5.14753 4.63001 5.40167 4.48208C5.55562 4.39729 5.67882 4.266 5.75365 4.10697C5.82849 3.94795 5.85113 3.76933 5.81834 3.59667C5.78587 3.43217 5.70511 3.28108 5.58636 3.1627C5.46761 3.04433 5.31627 2.96403 5.15167 2.93208C5.03155 2.90985 4.90802 2.9143 4.78981 2.94511C4.6716 2.97592 4.56162 3.03234 4.46764 3.11038C4.37366 3.18842 4.29798 3.28617 4.24597 3.3967C4.19396 3.50723 4.16689 3.62784 4.16667 3.75C4.16667 3.86051 4.12277 3.96649 4.04463 4.04463C3.96649 4.12277 3.86051 4.16667 3.75 4.16667C3.6395 4.16667 3.53352 4.12277 3.45538 4.04463C3.37724 3.96649 3.33334 3.86051 3.33334 3.75C3.33344 3.45604 3.41129 3.16734 3.55898 2.91319C3.70668 2.65903 3.91897 2.44846 4.17431 2.30283C4.42966 2.1572 4.71898 2.08169 5.01293 2.08397C5.30688 2.08625 5.59499 2.16624 5.84805 2.31581C6.10111 2.46538 6.3101 2.67922 6.45384 2.93564C6.59757 3.19206 6.67093 3.48193 6.66648 3.77585C6.66202 4.06977 6.57991 4.35729 6.42847 4.60923C6.27703 4.86117 6.06165 5.06858 5.80417 5.21042V5.21083Z" fill="#A6A0BB"/>
</svg>
